REM DIRINDEX 1\2\4,1\2\5,1\2\6,1\3\7,1\3\8,1\3\9,1\3\10
REM DIRNAME folder01,folder02,folder03,folder04,folder05,folder06,folder07,folder08,folder09,folder10
TITLE ""
FILE "a_193.mp3" MP3
  TRACK 01 AUDIO
    TITLE "0:"
    INDEX 01 00:00:00
  TRACK 02 AUDIO
    TITLE "4:cjc057_04041"
    INDEX 01 00:00:13
  TRACK 03 AUDIO
    TITLE "0:"
    INDEX 01 00:01:38
  TRACK 04 AUDIO
    TITLE "5:cjc057_04042"
    INDEX 01 00:01:64
  TRACK 05 AUDIO
    TITLE "0:"
    INDEX 01 00:04:54
  TRACK 06 AUDIO
    TITLE "4:cjc057_04043"
    INDEX 01 00:05:56
  TRACK 07 AUDIO
    TITLE "0:"
    INDEX 01 00:07:21
  TRACK 08 AUDIO
    TITLE "5:cjc057_04044"
    INDEX 01 00:07:51
  TRACK 09 AUDIO
    TITLE "0:"
    INDEX 01 00:09:28
  TRACK 10 AUDIO
    TITLE "4:cjc057_04045"
    INDEX 01 00:10:33
  TRACK 11 AUDIO
    TITLE "0:"
    INDEX 01 00:11:68
  TRACK 12 AUDIO
    TITLE "5:cjc057_04046"
    INDEX 01 00:12:24
  TRACK 13 AUDIO
    TITLE "0:"
    INDEX 01 00:13:59
  TRACK 14 AUDIO
    TITLE "4:cjc057_04047"
    INDEX 01 00:14:62
  TRACK 15 AUDIO
    TITLE "0:"
    INDEX 01 00:16:20
  TRACK 16 AUDIO
    TITLE "5:cjc057_04048"
    INDEX 01 00:16:49
  TRACK 17 AUDIO
    TITLE "0:"
    INDEX 01 00:18:23
  TRACK 18 AUDIO
    TITLE "4:cjc057_04049"
    INDEX 01 00:19:28
  TRACK 19 AUDIO
    TITLE "0:"
    INDEX 01 00:20:51
  TRACK 20 AUDIO
    TITLE "5:cjc057_04050"
    INDEX 01 00:21:06
  TRACK 21 AUDIO
    TITLE "0:"
    INDEX 01 00:22:46
  TRACK 22 AUDIO
    TITLE "4:cjc057_04051"
    INDEX 01 00:23:51
  TRACK 23 AUDIO
    TITLE "0:"
    INDEX 01 00:24:65
  TRACK 24 AUDIO
    TITLE "5:cjc057_04052"
    INDEX 01 00:25:19
  TRACK 25 AUDIO
    TITLE "0:"
    INDEX 01 00:27:61
  TRACK 26 AUDIO
    TITLE "4:cjc057_04053"
    INDEX 01 00:28:64
  TRACK 27 AUDIO
    TITLE "0:"
    INDEX 01 00:30:08
  TRACK 28 AUDIO
    TITLE "5:cjc057_04054"
    INDEX 01 00:30:38
  TRACK 29 AUDIO
    TITLE "0:"
    INDEX 01 00:33:64
  TRACK 30 AUDIO
    TITLE "4:cjc057_04055"
    INDEX 01 00:34:69
  TRACK 31 AUDIO
    TITLE "0:"
    INDEX 01 00:36:36
  TRACK 32 AUDIO
    TITLE "5:cjc057_04056"
    INDEX 01 00:36:66
  TRACK 33 AUDIO
    TITLE "0:"
    INDEX 01 00:39:52
  TRACK 34 AUDIO
    TITLE "4:cjc057_04057"
    INDEX 01 00:40:56
  TRACK 35 AUDIO
    TITLE "0:"
    INDEX 01 00:41:71
  TRACK 36 AUDIO
    TITLE "5:cjc057_04058"
    INDEX 01 00:42:27
  TRACK 37 AUDIO
    TITLE "0:"
    INDEX 01 00:43:64
  TRACK 38 AUDIO
    TITLE "4:cjc057_04059"
    INDEX 01 00:44:71
  TRACK 39 AUDIO
    TITLE "0:"
    INDEX 01 00:46:15
  TRACK 40 AUDIO
    TITLE "5:cjc057_04060"
    INDEX 01 00:46:45
  TRACK 41 AUDIO
    TITLE "0:"
    INDEX 01 00:49:14
  TRACK 42 AUDIO
    TITLE "4:cjc057_04061"
    INDEX 01 00:50:17
  TRACK 43 AUDIO
    TITLE "0:"
    INDEX 01 00:51:44
  TRACK 44 AUDIO
    TITLE "5:cjc057_04062"
    INDEX 01 00:51:73
  TRACK 45 AUDIO
    TITLE "0:"
    INDEX 01 00:53:35
  TRACK 46 AUDIO
    TITLE "4:cjc057_04063"
    INDEX 01 00:54:38
  TRACK 47 AUDIO
    TITLE "0:"
    INDEX 01 00:55:71
  TRACK 48 AUDIO
    TITLE "5:cjc057_04064"
    INDEX 01 00:56:27
  TRACK 49 AUDIO
    TITLE "0:"
    INDEX 01 00:58:24
  TRACK 50 AUDIO
    TITLE "4:cjc057_04065"
    INDEX 01 00:59:28
  TRACK 51 AUDIO
    TITLE "0:"
    INDEX 01 01:00:41
  TRACK 52 AUDIO
    TITLE "5:cjc057_04066"
    INDEX 01 01:00:70
  TRACK 53 AUDIO
    TITLE "0:"
    INDEX 01 01:03:33
  TRACK 54 AUDIO
    TITLE "4:cjc057_04067"
    INDEX 01 01:04:37
  TRACK 55 AUDIO
    TITLE "0:"
    INDEX 01 01:05:58
  TRACK 56 AUDIO
    TITLE "5:cjc057_04068"
    INDEX 01 01:06:14
  TRACK 57 AUDIO
    TITLE "0:"
    INDEX 01 01:08:56
  TRACK 58 AUDIO
    TITLE "4:cjc057_04069"
    INDEX 01 01:09:56
  TRACK 59 AUDIO
    TITLE "0:"
    INDEX 01 01:11:09
  TRACK 60 AUDIO
    TITLE "5:cjc057_04070"
    INDEX 01 01:11:39
  TRACK 61 AUDIO
    TITLE "0:"
    INDEX 01 01:12:56
  TRACK 62 AUDIO
    TITLE "4:cjc057_04071"
    INDEX 01 01:13:61
  TRACK 63 AUDIO
    TITLE "0:"
    INDEX 01 01:15:07
  TRACK 64 AUDIO
    TITLE "5:cjc057_04072"
    INDEX 01 01:15:39
  TRACK 65 AUDIO
    TITLE "0:"
    INDEX 01 01:17:02
  TRACK 66 AUDIO
    TITLE "4:cjc057_04073"
    INDEX 01 01:18:04
  TRACK 67 AUDIO
    TITLE "0:"
    INDEX 01 01:19:28
  TRACK 68 AUDIO
    TITLE "5:cjc057_04074"
    INDEX 01 01:19:58
  TRACK 69 AUDIO
    TITLE "0:"
    INDEX 01 01:23:05
  TRACK 70 AUDIO
    TITLE "4:cjc057_04075"
    INDEX 01 01:24:08
  TRACK 71 AUDIO
    TITLE "0:"
    INDEX 01 01:25:19
  TRACK 72 AUDIO
    TITLE "5:cjc057_04076"
    INDEX 01 01:25:49
  TRACK 73 AUDIO
    TITLE "0:"
    INDEX 01 01:27:71
  TRACK 74 AUDIO
    TITLE "4:cjc057_04077"
    INDEX 01 01:28:72
  TRACK 75 AUDIO
    TITLE "0:"
    INDEX 01 01:30:11
  TRACK 76 AUDIO
    TITLE "5:cjc057_04078"
    INDEX 01 01:30:42
  TRACK 77 AUDIO
    TITLE "0:"
    INDEX 01 01:34:59
  TRACK 78 AUDIO
    TITLE "4:cjc057_04079"
    INDEX 01 01:35:63
  TRACK 79 AUDIO
    TITLE "0:"
    INDEX 01 01:37:05
  TRACK 80 AUDIO
    TITLE "5:cjc057_04080"
    INDEX 01 01:37:34
  TRACK 81 AUDIO
    TITLE "0:"
    INDEX 01 01:40:03
  TRACK 82 AUDIO
    TITLE "4:cjc057_04081"
    INDEX 01 01:41:07
  TRACK 83 AUDIO
    TITLE "0:"
    INDEX 01 01:42:22
  TRACK 84 AUDIO
    TITLE "5:cjc057_04082"
    INDEX 01 01:42:53
  TRACK 85 AUDIO
    TITLE "0:"
    INDEX 01 01:45:28
  TRACK 86 AUDIO
    TITLE "4:cjc057_04083"
    INDEX 01 01:46:35
  TRACK 87 AUDIO
    TITLE "0:"
    INDEX 01 01:47:42
  TRACK 88 AUDIO
    TITLE "5:cjc057_04084"
    INDEX 01 01:47:72
  TRACK 89 AUDIO
    TITLE "0:"
    INDEX 01 01:51:17
